<svg viewBox="0 0 168 168" xmlns="http://www.w3.org/2000/svg" width="25" height="25">
    <circle cx="84" cy="84" r="84" fill="#1DB954"/>
    <path d="M119.1 114.9c-1.5 2.5-4.7 3.3-7.2 1.8-19.7-11.9-44.5-14.6-73.6-8.1-2.8.6-5.6-1.2-6.2-4-0.6-2.8 1.2-5.6 4-6.2 31.8-7 59.4-4 81.4 9.1 2.5 1.5 3.3 4.7 1.6 7.2zm9.9-20.6c-1.9 3.1-5.9 4.1-9 2.2-22.6-13.7-57.2-17.7-83.8-9.8-3.4 1-7.1-0.8-8.1-4.2-1-3.4 0.8-7.1 4.2-8.1 30.9-9 69.1-4.6 94.1 11.1 3.1 1.9 4.1 5.9 2.2 9zm0.8-23.2c-26.7-16.2-71.1-17.7-95.6-9.8-4.1 1.3-8.5-1.1-9.8-5.2-1.3-4.1 1.1-8.5 5.2-9.8 28.7-8.6 77.1-7 107.2 11.4 4 2.4 5.3 7.6 2.9 11.6-2.4 4-7.6 5.3-11.6 2.9z" fill="#000000"/>
</svg>